<svg width="21" height="20" viewBox="0 0 21 20" fill="none" xmlns="http://www.w3.org/2000/svg">
<path d="M10.9944 3.44539e-08C9.01658 3.44539e-08 7.08318 0.58649 5.43869 1.6853C3.7942 2.78412 2.51247 4.3459 1.75559 6.17317C0.998718 8.00043 0.800684 10.0111 1.18654 11.9509C1.57239 13.8907 2.5248 15.6725 3.92332 17.0711C5.32185 18.4696 7.10368 19.422 9.04349 19.8079C10.9833 20.1937 12.994 19.9957 14.8212 19.2388C16.6485 18.4819 18.2103 17.2002 19.3091 15.5557C20.4079 13.9112 20.9944 11.9778 20.9944 10C20.9945 8.68675 20.7359 7.38634 20.2334 6.17304C19.7309 4.95973 18.9943 3.8573 18.0657 2.92869C17.1371 2.00008 16.0347 1.26349 14.8214 0.760983C13.608 0.258474 12.3076 -0.000108979 10.9944 3.44539e-08ZM14.1739 15.1525C14.1365 15.2458 14.0795 15.33 14.0069 15.3996C13.9342 15.4691 13.8475 15.5223 13.7527 15.5556C13.6578 15.5889 13.5569 15.6015 13.4567 15.5926C13.3565 15.5837 13.2594 15.5535 13.1719 15.504L10.4572 13.3946L8.71491 15.002C8.67448 15.0319 8.62719 15.0511 8.57739 15.0579C8.52758 15.0647 8.47687 15.0589 8.42991 15.0409L8.76391 12.0525L8.7746 12.061L8.78143 12.002C8.78143 12.002 13.6664 7.55445 13.8654 7.36496C14.0669 7.17596 14.0004 7.13496 14.0004 7.13496C14.0119 6.90443 13.6389 7.13496 13.6389 7.13496L7.16639 11.299L4.4709 10.381C4.4709 10.381 4.0569 10.2325 4.0179 9.906C3.9769 9.582 4.48439 9.406 4.48439 9.406L15.2014 5.14849C15.2014 5.14849 16.0824 4.75597 16.0824 5.406L14.1739 15.1525Z" fill="black"/>
</svg>
