<svg width="56" height="56" viewBox="0 0 56 56" fill="none" xmlns="http://www.w3.org/2000/svg">
<path d="M38.6622 26.4469L29.6287 17.4819C29.2041 17.0632 28.6311 16.8294 28.0347 16.8317C27.4384 16.834 26.8671 17.0721 26.4457 17.494L17.4809 26.5275C17.0669 26.9523 16.8374 27.5233 16.8423 28.1165C16.8473 28.7096 17.0862 29.2768 17.5073 29.6946C17.9283 30.1124 18.4972 30.347 19.0904 30.3475C19.6835 30.3479 20.2528 30.1141 20.6744 29.6969L25.814 24.5182L25.8618 37.0864C25.8641 37.6832 26.1034 38.2546 26.5269 38.6749C26.9505 39.0952 27.5237 39.3301 28.1204 39.3279C28.7171 39.3256 29.2885 39.0864 29.7089 38.6628C30.1292 38.2392 30.3641 37.666 30.3618 37.0693L30.314 24.501L35.4928 29.6406C35.9172 30.0565 36.489 30.2876 37.0832 30.2835C37.6774 30.2793 38.2458 30.0403 38.6644 29.6185C39.0829 29.1967 39.3176 28.6265 39.3172 28.0322C39.3168 27.438 39.0813 26.8681 38.6622 26.4469Z" fill="#6563FF"/>
<path d="M27.9922 5.57803C23.5421 5.59496 19.197 6.93111 15.5064 9.4175C11.8157 11.9039 8.94521 15.4289 7.2579 19.5466C5.57058 23.6644 5.14223 28.1901 6.027 32.5513C6.91177 36.9126 9.06992 40.9135 12.2286 44.0482C15.3872 47.1829 19.4044 49.3105 23.7723 50.1621C28.1401 51.0136 32.6624 50.5508 36.7672 48.8322C40.872 47.1136 44.3751 44.2164 46.8333 40.5069C49.2915 36.7974 50.5946 32.4423 50.5776 27.9922C50.5483 22.027 48.1539 16.3169 43.9197 12.1149C39.6856 7.91284 33.9575 5.56196 27.9922 5.57803ZM38.6745 29.6283C38.4665 29.8381 38.2191 30.0048 37.9466 30.1189C37.674 30.2331 37.3817 30.2924 37.0862 30.2935C36.7908 30.2947 36.498 30.2376 36.2246 30.1255C35.9512 30.0134 35.7026 29.8486 35.4929 29.6404L30.3142 24.501L30.362 37.0692C30.3643 37.666 30.1294 38.2392 29.7091 38.6627C29.2887 39.0863 28.7173 39.3255 28.1206 39.3278C27.5239 39.3301 26.9507 39.0952 26.5271 38.6748C26.1036 38.2545 25.8643 37.6831 25.8621 37.0864L25.8142 24.5181L20.6747 29.6968C20.253 30.114 19.6837 30.3478 19.0906 30.3474C18.4975 30.347 17.9285 30.1123 17.5075 29.6945C17.0865 29.2767 16.8475 28.7095 16.8425 28.1164C16.8376 27.5233 17.0671 26.9522 17.4811 26.5274L26.4461 17.4939C26.8675 17.072 27.4387 16.8339 28.0351 16.8316C28.6314 16.8293 29.2044 17.0631 29.6291 17.4818L38.6624 26.4468C38.8722 26.6549 39.0389 26.9022 39.153 27.1748C39.2672 27.4473 39.3265 27.7396 39.3276 28.0351C39.3287 28.3305 39.2716 28.6233 39.1596 28.8966C39.0475 29.17 38.8827 29.4186 38.6745 29.6283Z" fill="#A2A1FF"/>
</svg>
