<svg width="20" height="20" viewBox="0 0 20 20" fill="none" xmlns="http://www.w3.org/2000/svg">
<path d="M10 0C8.02219 0 6.08879 0.58649 4.4443 1.6853C2.79981 2.78412 1.51809 4.3459 0.761209 6.17317C0.00433284 8.00043 -0.193701 10.0111 0.192152 11.9509C0.578004 13.8907 1.53041 15.6725 2.92894 17.0711C4.32746 18.4696 6.10929 19.422 8.0491 19.8079C9.98891 20.1937 11.9996 19.9957 13.8268 19.2388C15.6541 18.4819 17.2159 17.2002 18.3147 15.5557C19.4135 13.9112 20 11.9778 20 10C19.9971 7.34874 18.9425 4.80691 17.0678 2.93219C15.1931 1.05746 12.6513 0.00294858 10 0ZM14.707 10.707C14.6142 10.7999 14.504 10.8736 14.3826 10.9238C14.2613 10.9741 14.1313 11 14 11C13.8687 11 13.7386 10.9741 13.6173 10.9238C13.496 10.8736 13.3858 10.7999 13.2929 10.707L11 8.41406V14C11 14.2652 10.8946 14.5196 10.7071 14.7071C10.5196 14.8946 10.2652 15 10 15C9.73479 15 9.48043 14.8946 9.2929 14.7071C9.10536 14.5196 9 14.2652 9 14V8.41406L6.707 10.707C6.51892 10.8917 6.2655 10.9947 6.00188 10.9935C5.73826 10.9923 5.48579 10.887 5.29938 10.7006C5.11297 10.5142 5.00772 10.2617 5.00653 9.99812C5.00533 9.73451 5.10829 9.48109 5.293 9.293L9.2927 5.2933C9.48071 5.10648 9.73499 5.00163 10 5.00163C10.2651 5.00163 10.5194 5.10648 10.7074 5.2933L14.707 9.293C14.7999 9.38583 14.8735 9.49605 14.9238 9.61736C14.9741 9.73867 14.9999 9.86869 14.9999 10C14.9999 10.1313 14.9741 10.2613 14.9238 10.3826C14.8735 10.504 14.7999 10.6142 14.707 10.707Z" fill="#A2A1FF"/>
</svg>
